<svg width="50" height="50" viewBox="0 0 50 50" fill="none" xmlns="http://www.w3.org/2000/svg">
  <path d="M25 2C12.318 2 2 12.318 2 25C2 37.682 12.318 48 25 48C37.682 48 48 37.682 48 25C48 12.318 37.682 2 25 2Z" fill="#FF5722"/>
  <path d="M36.83 35.33C36.83 35.33 33.825 37.89 25 37.89C16.175 37.89 13.17 35.33 13.17 35.33C13.17 35.33 20.035 33.235 25 33.235C29.965 33.235 36.83 35.33 36.83 35.33Z" fill="#FFFFFF"/>
  <path d="M15.765 18.235C17.702 18.235 19.235 19.768 19.235 21.705C19.235 23.642 17.702 25.175 15.765 25.175C13.828 25.175 12.295 23.642 12.295 21.705C12.295 19.768 13.828 18.235 15.765 18.235Z" fill="#FFFFFF"/>
  <path d="M34.235 18.235C36.172 18.235 37.705 19.768 37.705 21.705C37.705 23.642 36.172 25.175 34.235 25.175C32.298 25.175 30.765 23.642 30.765 21.705C30.765 19.768 32.298 18.235 34.235 18.235Z" fill="#FFFFFF"/>
  <path d="M25 4C13.42 4 4 13.42 4 25C4 36.58 13.42 46 25 46C36.58 46 46 36.58 46 25C46 13.42 36.58 4 25 4ZM25 44C14.523 44 6 35.477 6 25C6 14.523 14.523 6 25 6C35.477 6 44 14.523 44 25C44 35.477 35.477 44 25 44Z" fill="#E64A19"/>
  <path d="M25 31.235C20.035 31.235 13.17 33.33 13.17 33.33C13.17 33.33 16.175 35.89 25 35.89C33.825 35.89 36.83 33.33 36.83 33.33C36.83 33.33 29.965 31.235 25 31.235Z" fill="#E64A19"/>
  <path d="M15.765 16.235C12.828 16.235 10.295 18.768 10.295 21.705C10.295 24.642 12.828 27.175 15.765 27.175C18.702 27.175 21.235 24.642 21.235 21.705C21.235 18.768 18.702 16.235 15.765 16.235ZM15.765 23.175C14.93 23.175 14.295 22.54 14.295 21.705C14.295 20.87 14.93 20.235 15.765 20.235C16.6 20.235 17.235 20.87 17.235 21.705C17.235 22.54 16.6 23.175 15.765 23.175Z" fill="#E64A19"/>
  <path d="M34.235 16.235C31.298 16.235 28.765 18.768 28.765 21.705C28.765 24.642 31.298 27.175 34.235 27.175C37.172 27.175 39.705 24.642 39.705 21.705C39.705 18.768 37.172 16.235 34.235 16.235ZM34.235 23.175C33.4 23.175 32.765 22.54 32.765 21.705C32.765 20.87 33.4 20.235 34.235 20.235C35.07 20.235 35.705 20.87 35.705 21.705C35.705 22.54 35.07 23.175 34.235 23.175Z" fill="#E64A19"/>
</svg>
